<svg id="filled_outline" height="512" viewBox="0 0 512 512" width="512" xmlns="http://www.w3.org/2000/svg" data-name="filled outline"><path d="m432 280v72l56 136h-24l-80-104-16-48 27.584-56z" fill="#4b6275"/><path d="m432 212.211v67.789l-40 24-48 72-32 112h-24l8-128 41.11-113.052 86.386-48.962z" fill="#62798c"/><path d="m248.466 277.903 15.534-69.903 32-16 35.035 58.392 92.461-52.406-15.496-61.986 24-8 8 72h24l8-80-16-32-56-8-64 8-40 16-48 32-32 64 8.267 90.933z" fill="#d1e4ff"/><path d="m360 85v51l-40 16-38.4-38.4-18.6 12.4 33 66 35.035 58.392 92.461-52.406-15.496-61.986-30.4-53.2z" fill="#f78e00"/><path d="m488 208-32 16-32-8-30.82007 17.78-155.44993 89.68-21.73 12.54 8 32-6.31006 3.16016a120.52411 120.52411 0 0 1 -113.68994-3.16016l2.52-8.81982a120.49827 120.49827 0 0 1 56.08984-71.53028l13.39016-7.6499 24 24 22.06006-11.87988 154.54-83.21021 31.39994-16.90991 8-24 44.21-29.47z" fill="#c78640"/><path d="m488 208-32 16-32-8-30.82 17.78-16.58-24.87 31.4-16.91 8-24 44.21-29.47z" fill="#718799"/><path d="m264 208-40-24-8 16 8.267 90.933 24.199-13.03z" fill="#ffceb6"/><path d="m432 128 24-40 16 32-8 80h-24z" fill="#ffceb6"/><path d="m288 488-16.71991-25.07987a43.70936 43.70936 0 0 0 -42.5498-19.02446h-.00006a43.70933 43.70933 0 0 1 -43.66188-20.78177l-3.0465-5.07749a43.70939 43.70939 0 0 0 -16.25332-15.72057l-44.96036-24.978a43.7094 43.7094 0 0 0 -35.0492-3.2575l-12.58308 4.19435a43.7093 43.7093 0 0 1 -33.36947-2.37151l-15.80642-7.90318v120z" fill="#ffcc4d"/><path d="m336 64v24a24 24 0 0 1 -24 24 24 24 0 0 1 -24-24v-24z" fill="#ffceb6"/><path d="m336 64h-72l16-16 1.64214-4.92642a27.89464 27.89464 0 0 1 26.46318-19.07358 27.89463 27.89463 0 0 1 27.89468 27.89464z" fill="#ffc431"/><path d="m216 336 8 32-6.31006 3.16016a120.52411 120.52411 0 0 1 -113.68994-3.16016l2.52-8.81982a120.49827 120.49827 0 0 1 56.08984-71.53028l13.39016-7.6499 24 24 22.06006-11.87988 15.66994 31.33988z" fill="#62798c"/><path d="m440 228.24609 14.05957 3.51465a8.00478 8.00478 0 0 0 5.51855-.60547l32-16a8.00029 8.00029 0 0 0 3.84961-10.126l-19.11279-47.78223 3.645-36.45117a7.99681 7.99681 0 0 0 -.80469-4.374l-16-32a7.99926 7.99926 0 0 0 -6.02343-4.3418l-56-8a8.015 8.015 0 0 0 -2.124-.01856l-55.00782 6.87599v-27.043a35.89421 35.89421 0 0 0 -69.94629-11.3515l-1.0459 3.13574-14.665 14.66406a8.00066 8.00066 0 0 0 5.65719 13.6572h16v16a31.79215 31.79215 0 0 0 3.57471 14.66895l-40.01221 26.6748a7.99763 7.99763 0 0 0 -2.71777 3.07813l-32 64a8.00531 8.00531 0 0 0 -.81153 4.30273l7.78809 85.66992-14.37305 7.73926-19.791-19.791a8.00152 8.00152 0 0 0 -9.626-1.28906l-13.39453 7.6543a127.82537 127.82537 0 0 0 -59.80957 76.27637l-1.98438 6.94433a51.60075 51.60075 0 0 0 -13.61425 2.56152l-12.583 4.19434a35.471 35.471 0 0 1 -27.26074-1.93652l-15.80665-7.90332a7.99951 7.99951 0 0 0 -11.57812 7.15525v120a8.00039 8.00039 0 0 0 8 8h288a8.00054 8.00054 0 0 0 7.69238-5.80176l31.65723-110.7998 15.12207-22.6836 9.93848 29.81543a8.01375 8.01375 0 0 0 1.249 2.34766l80 104a8.00015 8.00015 0 0 0 6.34084 3.12207h24a7.99987 7.99987 0 0 0 7.39746-11.0459l-55.39746-134.5371zm37.83789-24.10937-22.76855 11.38476-29.12891-7.28222a8.00008 8.00008 0 0 0 -5.93848.83105l-24.32007 14.03076-7.54565-11.31884 23.65677-12.73823a8.00572 8.00572 0 0 0 3.79687-4.51368l7.13184-21.39648 5.81323-3.87549 3.51392 31.62549a8.00054 8.00054 0 0 0 7.95114 7.11616h24a7.99881 7.99881 0 0 0 7.96-7.2041l.90845-9.08374zm-236.749 108.15234-8.40189-16.80371 141.29932-76.084 7.80786 11.71191zm29.89453-98.83691 21.96777-10.9834 19.22532 32.04225-52.10766 28.05786zm23.39746-98.75806a31.9685 31.9685 0 0 0 48.80029-19.5293l8.81883-1.10229v36.5215l-30.07324 12.0293-27.76953-27.7703zm19.96191 42.96314a8.00019 8.00019 0 0 0 8.62793 1.7705l40-16a7.99873 7.99873 0 0 0 5.02928-7.42773v-43.9375l5.3-.6626 27.20727 47.61255 7.16651 28.66626-6.25972 18.78129-75.13406 40.45675-23.26441-38.77417-29.7019-59.40381 7.26636-4.84424zm103.21485-16.41016 7.584-2.52832 1.40405 12.63623-5.53808 3.6919zm46.252-19.73926-7.04987 70.49219h-9.59961l-6.91065-62.199 15.11255-25.18775zm-63.88093-33.43652 43.01172 6.14453-16.27808 27.13018-14.97046 4.99023-21.19213-37.08623zm-114.27148-34.41406a8.00738 8.00738 0 0 0 1.93164-3.127l1.64355-4.92675a19.89417 19.89417 0 0 1 38.76758 6.29105v4.10547h-44.68652zm42.34277 18.34277v16a16 16 0 0 1 -32 0v-16zm-73.79492 69.47754 5.69189-3.79468 25.36988 50.7395-20.91626 10.458-29.88233-17.92944zm-30.03223 60.06446 3.11865-6.23706 27.64795 16.58887-13.48877 60.70044-10.31368 5.55321zm-109.96094 159.83788a111.91061 111.91061 0 0 1 52.36231-66.77929l8.08984-4.62305 19.67871 19.67969a8.00026 8.00026 0 0 0 9.4502 1.38672l14.80005-7.96924 8.6123 17.22461-15.20337 8.771a7.99882 7.99882 0 0 0 -3.76269 8.87012l6.44336 25.77344-.57227.28612a112.2521 112.2521 0 0 1 -100.64648-.00293zm-82.21191 118.62012v-99.05566l4.22852 2.11425a51.37429 51.37429 0 0 0 39.47753 2.80567l12.582-4.19434a35.80373 35.80373 0 0 1 28.63574 2.66113l44.959 24.97754a35.751 35.751 0 0 1 13.27832 12.84375l3.04688 5.07813a51.60349 51.60349 0 0 0 51.65332 24.585 35.87241 35.87241 0 0 1 34.76269 15.542l8.42776 12.64253zm195.59863-44.02441a35.635 35.635 0 0 1 -35.66992-16.97754l-3.04687-5.07715a51.77949 51.77949 0 0 0 -19.22852-18.59863l-6.14429-3.41358c.0896.00049.17945.0044.26929.0044a128.43035 128.43035 0 0 0 57.4873-13.60254l6.31153-3.15528a7.99817 7.99817 0 0 0 4.18359-9.0957l-6.53613-26.14551 88.03539-50.78906-24.77856 68.14062a8.03576 8.03576 0 0 0 -.46583 2.23536l-6.52 104.32031-3.55909-5.33887a51.971 51.971 0 0 0 -50.33789-22.50683zm109.74512-64.41309a8.01379 8.01379 0 0 0 -1.03613 2.23926l-30.3418 106.19824h-9.4502l7.39649-118.34961 30.89355-84.956 89.19434-51.45782v50.23413l-36.11621 21.66895a8.00472 8.00472 0 0 0 -2.54 2.42285zm138.71094 108.4375h-8.11524l-76.77636-99.80859-13.44727-40.34327 19.94238-29.91357 26.3418-15.80469v57.87012a8.00562 8.00562 0 0 0 .60254 3.0459z"/></svg>