<svg xmlns="http://www.w3.org/2000/svg" xmlns:xlink="http://www.w3.org/1999/xlink" width="24" height="24" preserveAspectRatio="xMidYMid meet" viewBox="0 0 24 24" style="-ms-transform: rotate(360deg); -webkit-transform: rotate(360deg); transform: rotate(360deg);"><path d="M20 6c0-2.168-3.663-4-8-4S4 3.832 4 6v2c0 2.168 3.663 4 8 4s8-1.832 8-4V6zm-8 13c-4.337 0-8-1.832-8-4v3c0 2.168 3.663 4 8 4s8-1.832 8-4v-3c0 2.168-3.663 4-8 4z" fill="blue"/><path d="M20 10c0 2.168-3.663 4-8 4s-8-1.832-8-4v3c0 2.168 3.663 4 8 4s8-1.832 8-4v-3z" fill="blue"/><rect x="0" y="0" width="24" height="24" fill="rgba(0, 0, 0, 0)" /></svg>