<svg xmlns="http://www.w3.org/2000/svg" xmlns:xlink="http://www.w3.org/1999/xlink" width="32" height="32" preserveAspectRatio="xMidYMid meet" viewBox="0 0 32 32" style="-ms-transform: rotate(360deg); -webkit-transform: rotate(360deg); transform: rotate(360deg);"><path d="M8 10h8v2H8z" fill="blue"/><path d="M8 6h12v2H8z" fill="blue"/><path d="M8 2h12v2H8z" fill="blue"/><path d="M4.711 28l5.631-9.996l7.434 6.49a2 2 0 0 0 3.084-.534l6.97-10.403l-1.661-1.114l-7 10.448l-.07.103l-7.435-6.49a2.003 2.003 0 0 0-3.08.53L4 25.183V2H2v26a2.002 2.002 0 0 0 2 2h26v-2z" fill="blue"/><rect x="0" y="0" width="32" height="32" fill="rgba(0, 0, 0, 0)" /></svg>